<?xml version="1.0" standalone="yes"?>
<svg xmlns="http://www.w3.org/2000/svg" width="313" height="309">
<path style="fill:#ffffff; stroke:none;" d="M0 0L0 309L313 309L313 0L0 0z"/>
<path style="fill:#000000; stroke:none;" d="M151 144C138.579 134.536 127.439 122.727 116 112.09C97.4733 94.8613 78.7605 77.8042 60 60.8302C52.2625 53.8296 44.9077 46.391 37 39.5764C34.8805 37.7499 31.449 33.449 28.2785 33.9213C25.4745 34.339 24.9237 38.852 24.3742 41C22.5847 47.996 21.0682 55.0867 18.9753 62C18.2614 64.3582 16.4933 67.9634 18.6435 70.0617C21.2814 72.6358 27.5583 72.355 31 72.9198C39.0977 74.2485 44.7449 75.3142 51 81.0903C76.5012 104.639 101.962 128.33 128 151.285C135.433 157.838 142.567 164.73 150 171.285C153.934 174.755 157.204 178.764 162 181C136.119 207.097 112.421 235.411 87.0394 262C81.1621 268.157 75.3996 274.546 69.8495 281C68.5279 282.537 64.6613 285.945 66.1759 288.338C68.0177 291.247 72.7151 286.206 73.9105 284.981C79.8644 278.876 85.4474 272.325 91.1698 266C106.974 248.532 123.037 231.239 139.09 214C147.828 204.615 157.746 195.609 165 185C187.538 207.073 211.858 227.466 235 248.911C240.548 254.053 246.128 259.339 252 264.11C253.27 265.142 257.225 268.858 258.824 266.338C259.713 264.938 258.496 263.161 257.663 262.085C255.039 258.695 251.09 255.988 248 253.011C234.734 240.227 220.672 228.179 207 215.83C168.901 181.418 130.193 147.346 93 111.961C82.5516 102.021 71.7017 92.4963 61 82.8302C56.3641 78.643 51.7415 72.8379 46.0394 70.0741C40.1592 67.224 29.5013 67.1342 23 67L30 41C89.8695 96.1448 148.957 152.445 210 206.285C224.226 218.833 238.34 231.848 252 245.011C255.208 248.102 258.45 251.23 261.999 253.937C263.282 254.915 265.576 256.94 267.338 255.824C270.255 253.976 265.223 249.346 263.981 248.17C256.766 241.335 249.135 234.94 242 228.014C212.733 199.605 180.856 173.837 152 145C160.517 142.608 167.584 131.467 173.285 125C183.737 113.145 194.261 99.7312 206.09 89.2631C211.515 84.4614 218.221 80.5691 224 76.1188C228.35 72.7694 232.63 69.3279 237 66.0054C238.673 64.7337 240.704 62.8022 242.985 62.966C246.985 63.2534 250.824 69.7159 254 72C244.173 84.7499 235.786 98.6849 225.41 111C219.028 118.573 211.918 125.524 205.424 133C198.333 141.164 190.579 148.761 183.58 157C182.402 158.387 176.633 163.906 179.662 165.824C182.103 167.37 185.347 163.462 186.715 161.981C192.517 155.697 198.053 149.16 203.989 143C228.665 117.392 248.79 88.8563 269.421 60L285.14 38C286.93 35.4973 290.712 31.6359 290.133 28.26C289.247 23.088 283.169 23.6203 279.999 25.689C269.874 32.2967 260.503 40.532 251 48C238.382 57.9166 225.697 67.759 213 77.5748C209.497 80.2831 205.396 82.337 202.09 85.2631C192.181 94.0318 183.906 105.294 174.911 115C169.388 120.96 163.746 126.859 158.424 133C155.403 136.487 152.26 139.509 151 144z"/>
<path style="fill:#ffffff; stroke:none;" d="M247 57L256 68C261.362 63.8625 265.084 57.4923 269 52C274.386 44.4461 280.408 37.062 285 29C270.93 35.2694 260.06 48.8397 247 57M151 144L152 145L151 144z"/>
<path style="fill:#000000; stroke:none;" d="M131.941 161.176C128.878 162.34 126.305 165.645 124.17 168C119.849 172.765 115.549 177.444 111 182C92.8501 200.179 76.1505 219.82 58 238C52.1682 243.841 46.562 249.854 41.0556 256C40.0948 257.072 35.4622 262.431 39.3372 263.079C42.222 263.561 45.233 259.757 46.9853 257.995C52.4732 252.477 57.4904 246.518 63 241C82.4832 221.485 100.542 200.552 119.999 181C124.633 176.344 129.84 171.353 133.664 166.005C135.093 164.005 135.924 159.661 131.941 161.176z"/>
</svg>
